# xmcd
#
# Track frame offsets: 
#        150
#        17312
#        35207
#        49804
#        62729
#        79790
#        93269
#        110908
#        123866
#        136810
#        149855
#        167595
#        179954
#
# Disc length: 2600 seconds
#
# Revision: 2
# Processed by: cddbd v1.5.2PL0 Copyright (c) Steve Scherf et al.
# Submitted via: ExactAudioCopyFreeDBPlugin 1.0
#
DISCID=bc0a260d
DTITLE=Al Green - 1971 - Gets Next To You
DYEAR=1971
DGENRE=Soul
TTITLE0=I Can't Get Next To You
TTITLE1=Are You Lonely For Me Baby
TTITLE2=God Is Standing By
TTITLE3=Tired Of Being Alone
TTITLE4=I'm A Ram
TTITLE5=Driving Wheel
TTITLE6=Light My Fire
TTITLE7=You Say It
TTITLE8=Right Now, Right Now
TTITLE9=All Because
TTITLE10=Ride, Sally Ride
TTITLE11=True Love
TTITLE12=I'll Be Standing By
EXTD=
EXTT0=
EXTT1=
EXTT2=
EXTT3=
EXTT4=
EXTT5=
EXTT6=
EXTT7=
EXTT8=
EXTT9=
EXTT10=
EXTT11=
EXTT12=
PLAYORDER=
